<mxfile host="app.diagrams.net" modified="2023-12-14T13:10:22.776Z" agent="Mozilla/5.0 (Windows NT 10.0; Win64; x64) AppleWebKit/537.36 (KHTML, like Gecko) Chrome/119.0.0.0 Safari/537.36 Edg/119.0.0.0" etag="4P9vOZgRVbxVv8Nh7S3n" version="22.1.8" type="github">
  <diagram name="페이지-1" id="65uPVHIQYmsKwXFldDYE">
    <mxGraphModel dx="2546" dy="1766" grid="0" gridSize="10" guides="0" tooltips="1" connect="1" arrows="1" fold="1" page="0" pageScale="1" pageWidth="827" pageHeight="1169" math="0" shadow="0">
      <root>
        <mxCell id="0" />
        <mxCell id="1" parent="0" />
        <mxCell id="WCBGweSs4nGs-buCLOPQ-4" value="" style="edgeStyle=orthogonalEdgeStyle;rounded=0;orthogonalLoop=1;jettySize=auto;html=1;" edge="1" parent="1" source="WCBGweSs4nGs-buCLOPQ-1" target="WCBGweSs4nGs-buCLOPQ-3">
          <mxGeometry relative="1" as="geometry" />
        </mxCell>
        <mxCell id="WCBGweSs4nGs-buCLOPQ-1" value="모델학습" style="rounded=1;whiteSpace=wrap;html=1;" vertex="1" parent="1">
          <mxGeometry x="-640" y="-730" width="120" height="60" as="geometry" />
        </mxCell>
        <mxCell id="WCBGweSs4nGs-buCLOPQ-6" value="" style="edgeStyle=orthogonalEdgeStyle;rounded=0;orthogonalLoop=1;jettySize=auto;html=1;" edge="1" parent="1" source="WCBGweSs4nGs-buCLOPQ-3" target="WCBGweSs4nGs-buCLOPQ-5">
          <mxGeometry relative="1" as="geometry" />
        </mxCell>
        <mxCell id="WCBGweSs4nGs-buCLOPQ-3" value="특정량 추출 및 업데이트" style="whiteSpace=wrap;html=1;rounded=1;" vertex="1" parent="1">
          <mxGeometry x="-440" y="-730" width="150" height="60" as="geometry" />
        </mxCell>
        <mxCell id="WCBGweSs4nGs-buCLOPQ-5" value="예측" style="whiteSpace=wrap;html=1;rounded=1;" vertex="1" parent="1">
          <mxGeometry x="-195" y="-730" width="120" height="60" as="geometry" />
        </mxCell>
        <mxCell id="WCBGweSs4nGs-buCLOPQ-7" value="" style="shape=actor;whiteSpace=wrap;html=1;" vertex="1" parent="1">
          <mxGeometry y="-730" width="40" height="60" as="geometry" />
        </mxCell>
        <mxCell id="WCBGweSs4nGs-buCLOPQ-8" style="edgeStyle=orthogonalEdgeStyle;rounded=0;orthogonalLoop=1;jettySize=auto;html=1;exitX=1;exitY=0.5;exitDx=0;exitDy=0;entryX=0.1;entryY=0.5;entryDx=0;entryDy=0;entryPerimeter=0;" edge="1" parent="1" source="WCBGweSs4nGs-buCLOPQ-5" target="WCBGweSs4nGs-buCLOPQ-7">
          <mxGeometry relative="1" as="geometry" />
        </mxCell>
        <mxCell id="WCBGweSs4nGs-buCLOPQ-11" value="사용자" style="text;html=1;strokeColor=none;fillColor=none;align=center;verticalAlign=middle;whiteSpace=wrap;rounded=0;" vertex="1" parent="1">
          <mxGeometry x="-10" y="-660" width="60" height="30" as="geometry" />
        </mxCell>
        <mxCell id="WCBGweSs4nGs-buCLOPQ-12" value="" style="shape=actor;whiteSpace=wrap;html=1;" vertex="1" parent="1">
          <mxGeometry x="-686" y="-523" width="40" height="60" as="geometry" />
        </mxCell>
        <mxCell id="WCBGweSs4nGs-buCLOPQ-13" value="DB" style="rounded=1;whiteSpace=wrap;html=1;" vertex="1" parent="1">
          <mxGeometry x="-352" y="-515" width="120" height="60" as="geometry" />
        </mxCell>
        <mxCell id="WCBGweSs4nGs-buCLOPQ-18" value="" style="endArrow=classic;html=1;rounded=0;edgeStyle=orthogonalEdgeStyle;" edge="1" parent="1">
          <mxGeometry relative="1" as="geometry">
            <mxPoint x="-557" y="-507" as="sourcePoint" />
            <mxPoint x="-390" y="-507" as="targetPoint" />
          </mxGeometry>
        </mxCell>
        <mxCell id="WCBGweSs4nGs-buCLOPQ-19" value="쿼리" style="edgeLabel;resizable=0;html=1;align=center;verticalAlign=middle;" connectable="0" vertex="1" parent="WCBGweSs4nGs-buCLOPQ-18">
          <mxGeometry relative="1" as="geometry" />
        </mxCell>
        <mxCell id="WCBGweSs4nGs-buCLOPQ-20" value="" style="endArrow=none;html=1;rounded=0;edgeStyle=orthogonalEdgeStyle;endFill=0;startArrow=classic;startFill=1;" edge="1" parent="1">
          <mxGeometry relative="1" as="geometry">
            <mxPoint x="-556" y="-466" as="sourcePoint" />
            <mxPoint x="-389" y="-466" as="targetPoint" />
          </mxGeometry>
        </mxCell>
        <mxCell id="WCBGweSs4nGs-buCLOPQ-21" value="신규아이템" style="edgeLabel;resizable=0;html=1;align=center;verticalAlign=middle;" connectable="0" vertex="1" parent="WCBGweSs4nGs-buCLOPQ-20">
          <mxGeometry relative="1" as="geometry" />
        </mxCell>
        <mxCell id="WCBGweSs4nGs-buCLOPQ-22" value="" style="verticalLabelPosition=bottom;verticalAlign=top;html=1;shadow=0;dashed=0;strokeWidth=1;shape=mxgraph.android.phone2;strokeColor=#c0c0c0;" vertex="1" parent="1">
          <mxGeometry x="-622" y="-524" width="39" height="67" as="geometry" />
        </mxCell>
        <mxCell id="WCBGweSs4nGs-buCLOPQ-23" value="웹서비스" style="text;html=1;align=center;verticalAlign=middle;resizable=0;points=[];autosize=1;strokeColor=none;fillColor=none;" vertex="1" parent="1">
          <mxGeometry x="-634" y="-446" width="66" height="26" as="geometry" />
        </mxCell>
        <mxCell id="WCBGweSs4nGs-buCLOPQ-25" value="그림 6-2" style="text;html=1;align=center;verticalAlign=middle;resizable=0;points=[];autosize=1;strokeColor=none;fillColor=none;" vertex="1" parent="1">
          <mxGeometry x="-689" y="-390" width="63" height="26" as="geometry" />
        </mxCell>
      </root>
    </mxGraphModel>
  </diagram>
</mxfile>
